
United.2011.HDTV.XviD-BiA][ICM369
_________________________________

Release Date: 24 April 2011 (UK)

Genre: Drama
Director: James Strong
Writer: Chris Chibnall
Country: UK
Language: English
 
http://www.imdb.com/title/tt1777034/
 
http://leetleech.org/images/55407188130625280552.png
 
http://leetleech.org/images/16491803480878163165.png
 
http://leetleech.org/images/40184709291763716958.png
 
http://leetleech.org/images/27333562769883378025.png

United is based on the true story of Manchester United's legendary "Busby Babes", 
the youngest side ever to win the Football League and the 1958 Munich Air Crash 
that claimed eight of the their number. 

The film draws on first-hand interviews with the survivors and their families to 
tell the inspirational story of a team and community overcoming terrible tragedy.

Stars: David Tennant, Dougray Scott, Sam Claflin, Jack O'Connell, Kate Ashfield

__________

Release Name: United 2011 HDTV XviD-BiA
Size: 697.88 MB
Video: 720 304 | XviD
Audio: English | MP3 VBR
Runtime: 90 mins
__________

Format                           : AVI
Format/Info                      : Audio Video Interleave
File size                        : 698 MiB
Duration                         : 1h 32mn
Overall bit rate                 : 1 060 Kbps

Video
ID                               : 0
Format                           : MPEG-4 Visual
Format profile                   : Advanced Simple@L5
Format settings, BVOP            : 2
Format settings, QPel            : No
Format settings, GMC             : No warppoints
Format settings, Matrix          : Default (H.263)
Codec ID                         : XVID
Codec ID/Hint                    : XviD
Duration                         : 1h 30mn
Bit rate                         : 930 Kbps
Width                            : 720 pixels
Height                           : 304 pixels
Display aspect ratio             : 2.35:1
Frame rate                       : 25.000 fps
Color space                      : YUV
Chroma subsampling               : 4:2:0
Bit depth                        : 8 bits
Scan type                        : Progressive
Compression mode                 : Lossy
Bits/(Pixel*Frame)               : 0.170
Stream size                      : 605 MiB (87%)
Writing library                  : XviD 1.2.1 (UTC 2008-12-04)

Audio
ID                               : 1
Format                           : MPEG Audio
Format version                   : Version 1
Format profile                   : Layer 3
Mode                             : Joint stereo
Mode extension                   : MS Stereo
Codec ID                         : 55
Codec ID/Hint                    : MP3
Duration                         : 1h 32mn
Bit rate mode                    : Variable
Bit rate                         : 128 Kbps
Channel(s)                       : 2 channels
Sampling rate                    : 48.0 KHz
Compression mode                 : Lossy
Stream size                      : 84.3 MiB (12%)
Alignment                        : Aligned on interleaves
Interleave, duration             : 24 ms (0.60 video frame)
__________

Enjoy:D


